<?xml version="1.0" encoding="utf-8"?>
<!-- Generator: Adobe Illustrator 23.0.1, SVG Export Plug-In . SVG Version: 6.00 Build 0)  -->
<svg version="1.1" xmlns="http://www.w3.org/2000/svg" xmlns:xlink="http://www.w3.org/1999/xlink" x="0px" y="0px"
	 viewBox="0 0 1920 1080" style="enable-background:new 0 0 1920 1080;" xml:space="preserve">
<style type="text/css">
	.st0{display:none;fill:#E1C283;}
	.st1{fill:#CCCCCC;}
	.st2{display:none;}
	.st3{display:inline;}
	.st4{font-family:'Gotham-Black';}
	.st5{font-size:95.362px;}
	.st6{fill:none;stroke:#000000;stroke-width:30.9189;stroke-miterlimit:10;}
	.st7{fill:#FFFFFF;}
	.st8{fill:none;stroke:#FFFFFF;stroke-width:30.9189;stroke-miterlimit:10;}
	.st9{display:inline;fill:#FFFFFF;}
	.st10{display:inline;fill:#F7E18E;}
	.st11{display:inline;fill:#DBDBDB;}
	.st12{font-family:'Roboto-Light';}
	.st13{font-size:79.5634px;}
	.st14{font-family:'GalanoGrotesqueAltDEMO-Bold';}
	.st15{font-size:73.2751px;}
	.st16{display:inline;fill:#FFD81A;}
	.st17{fill:#FFD81A;}
	.st18{display:none;fill:#FFFFFF;}
	.st19{font-family:'Baskerville-SemiBold';}
	.st20{font-size:245.1879px;}
	.st21{letter-spacing:-44;}
	.st22{display:inline;fill:none;stroke:#FFFFFF;stroke-miterlimit:10;}
	.st23{fill:#DBDBDB;}
	.st24{fill:none;stroke:#FFFFFF;stroke-miterlimit:10;}
</style>
<g id="Layer_1">
	<rect x="-1" y="-3" class="st0" width="1925" height="1081"/>
	<g>
		<path d="M1114.5,577.4l-103.8-179.9c-13.6-23.5-5.5-53.6,18-67.2l0,0c23.5-13.6,53.6-5.5,67.2,18l103.8,179.9
			c13.6,23.5,5.5,53.6-18,67.2l0,0C1158.2,609,1128.1,600.9,1114.5,577.4z"/>
		<path class="st1" d="M1333.3,577.4l103.8-179.9c13.6-23.5,5.5-53.6-18-67.2l0,0c-23.5-13.6-53.6-5.5-67.2,18l-103.8,179.9
			c-13.6,23.5-5.5,53.6,18,67.2h0C1289.6,609,1319.7,600.9,1333.3,577.4z"/>
		<path d="M1252.9,577.4L1149,397.5c-13.6-23.5-5.5-53.6,18-67.2l0,0c23.5-13.6,53.6-5.5,67.2,18l103.8,179.9
			c13.6,23.5,5.5,53.6-18,67.2h0C1296.5,609,1266.4,600.9,1252.9,577.4z"/>
		<path class="st1" d="M1543.5,577.4l103.8-179.9c13.6-23.5,5.5-53.6-18-67.2v0c-23.5-13.6-53.6-5.5-67.2,18l-103.8,179.9
			c-13.6,23.5-5.5,53.6,18,67.2h0C1499.9,609,1530,600.9,1543.5,577.4z"/>
		<path class="st1" d="M1864.8,429.4v66.1c-8.6,9.9-21.4,16.2-35.5,16.2h-187.7c-26.1,0-47.2-21.1-47.2-47.2v-3.9
			c0-26.1,21.1-47.2,47.2-47.2h187.7C1843.4,413.3,1856.1,419.5,1864.8,429.4z"/>
		<path d="M1699.3,556.3V368.6c0-26.1-21.1-47.2-47.2-47.2h-3.9c-26.1,0-47.2,21.1-47.2,47.2v187.7c0,26.1,21.1,47.2,47.2,47.2h3.9
			C1678.2,603.6,1699.3,582.4,1699.3,556.3z"/>
		<path d="M1870.8,368.6v187.7c0,26.1-21.1,47.2-47.2,47.2h-3.9c-26.1,0-47.2-21.1-47.2-47.2V368.6c0-26.1,21.1-47.2,47.2-47.2h3.9
			C1849.7,321.4,1870.8,342.5,1870.8,368.6z"/>
		<path d="M1463.1,577.4l-103.8-179.9c-13.6-23.5-5.5-53.6,18-67.2l0,0c23.5-13.6,53.6-5.5,67.2,18l103.8,179.9
			c13.6,23.5,5.5,53.6-18,67.2l0,0C1506.8,609,1476.7,600.9,1463.1,577.4z"/>
		<g>
			<g>
				<path d="M556.1,449.9H526l-19-70.4l-19.2,70.4h-29.9L425.3,336h28.7l19.9,71.8l19.6-71.8h26.7l19.6,71.8l19.9-71.8h28.9
					L556.1,449.9z"/>
				<path d="M669,395.9v54.1h-26.2v-6.3c-6,5.1-14.1,8.8-25.5,8.8c-19,0-31.8-11.1-31.8-27.9c0-16.7,12.8-27.5,35.5-27.5h21.8v-1.7
					c0-7.1-4.9-11.9-12.1-11.9c-8.2,0-12.9,3.2-14.3,10.7l-25.7-5.3c3.7-16.5,18.7-26.9,39.1-26.9C653.8,362,669,374.1,669,395.9z
					 M642.8,416.3v-1.9h-18.7c-6.8,0-11.1,3.6-11.1,8.8c0,5.4,4.8,8.8,11.9,8.8C634.3,432.1,642.8,425.8,642.8,416.3z"/>
				<path d="M711.6,420.9c0,4.4,3.2,7.5,8.2,7.5c2.4,0,6-1,9.9-2.4l4.3,21.3c-4.9,2.4-10.2,5.3-20.1,5.3
					c-17.7,0-29.4-11.9-29.4-29.6V319h27.2V420.9z"/>
				<path d="M802.3,446.2c-6.6,3.6-13.6,6.3-23.3,6.3c-21.3,0-34-11.6-34-34v-32.3h-15.5v-21.6H745V336h27.2v28.6h25.2v21.6h-25.2
					v29.6c0,8.8,4.3,12.4,11.4,12.4c3.7,0,8.8-1.4,12.4-3.4L802.3,446.2z"/>
				<path d="M894.6,414.2H832c2.2,10.2,9.2,16.5,18.4,16.5c6.3,0,13.6-1.5,18.2-9.9l24.1,4.9c-7.3,18-22.8,26.7-42.3,26.7
					c-24.7,0-45.1-18.2-45.1-45.2c0-26.9,20.4-45.2,45.2-45.2c24.1,0,43.5,17.3,44,45.2V414.2z M832.5,397.6h35.2
					c-2.6-9.2-9.4-13.4-17.2-13.4C842.9,384.1,835.1,388.9,832.5,397.6z"/>
				<path d="M971.4,364.1l-1.2,27.2h-4.9c-19,0-29.4,9.9-29.4,32v26.7h-27.2v-85.4h27.2v16.3c6.1-10.2,15.5-17.5,29.4-17.5
					C967.7,363.4,969.4,363.5,971.4,364.1z"/>
			</g>
			<g>
				<path d="M108.1,601.6h-27L32.6,487.7h30.9l30.9,75.5l31.1-75.5h30.9L108.1,601.6z"/>
				<path d="M233.8,547.6v54.1h-26.2v-6.3c-6,5.1-14.1,8.8-25.5,8.8c-19,0-31.8-11.1-31.8-27.9c0-16.7,12.8-27.5,35.5-27.5h21.8
					v-1.7c0-7.1-4.9-11.9-12.1-11.9c-8.2,0-12.9,3.2-14.3,10.7l-25.7-5.3c3.7-16.5,18.7-26.9,39.1-26.9
					C218.6,513.7,233.8,525.8,233.8,547.6z M207.6,568v-1.9h-18.7c-6.8,0-11.1,3.6-11.1,8.8c0,5.4,4.8,8.8,11.9,8.8
					C199.1,583.8,207.6,577.5,207.6,568z"/>
				<path d="M337.3,549.3v52.4h-27v-46.6c0-10-6-16.8-14.6-16.8c-10.7,0-17.7,7.3-17.7,23.8v39.6h-27.2v-85.4H278v8.2
					c6.5-6.8,15.5-10.7,26.2-10.7C324.1,513.7,337.3,527.9,337.3,549.3z"/>
				<path d="M499.2,601.6h-27.9v-45.1h-47.9v45.1h-28.1V487.7h28.1v44.4h47.9v-44.4h27.9V601.6z"/>
				<path d="M607.5,559c0,27-21.4,45.1-46.8,45.1c-25.8,0-47.3-18-47.3-45.1c0-26.9,21.4-44.9,47.3-44.9
					C586.1,514.1,607.5,532.1,607.5,559z M581.3,559c0-13.3-10-22.1-20.6-22.1c-11.1,0-21.1,8.8-21.1,22.1c0,13.4,10,22.1,21.1,22.1
					C571.3,581.1,581.3,572.4,581.3,559z"/>
				<path d="M710,559c0,27-21.4,45.1-46.8,45.1c-25.8,0-47.3-18-47.3-45.1c0-26.9,21.4-44.9,47.3-44.9
					C688.6,514.1,710,532.1,710,559z M683.8,559c0-13.3-10-22.1-20.6-22.1c-11.1,0-21.1,8.8-21.1,22.1c0,13.4,10,22.1,21.1,22.1
					C673.8,581.1,683.8,572.4,683.8,559z"/>
				<path d="M744.9,573.9c1.2,7.3,7.8,10,15.1,10c7.1,0,11.1-3.1,11.1-6.8c0-2.9-2.2-5.1-8.5-6.3l-17.3-3.4
					c-15.8-2.9-24.8-11.4-24.8-24.8c0-17.5,15.1-28.9,36.7-28.9c21.3,0,35.4,9.7,38.8,24.5l-24.8,4.9c-0.9-5.3-6-10-14.3-10
					c-7.3,0-9.7,3.6-9.7,6.6c0,2.4,1,4.8,6.5,6l20.1,4.1c16.2,3.4,23.6,13.1,23.6,25.7c0,18.9-16.3,28.7-38.8,28.7
					c-20.1,0-37.2-7.3-40.1-24.8L744.9,573.9z"/>
				<path d="M895.3,565.9h-62.6c2.2,10.2,9.2,16.5,18.4,16.5c6.3,0,13.6-1.5,18.2-9.9l24.1,4.9c-7.3,18-22.8,26.7-42.3,26.7
					c-24.7,0-45.1-18.2-45.1-45.2c0-26.9,20.4-45.2,45.2-45.2c24.1,0,43.5,17.3,44,45.2V565.9z M833.3,549.3h35.2
					c-2.5-9.2-9.4-13.4-17.2-13.4C843.7,535.8,835.8,540.6,833.3,549.3z"/>
				<path d="M972.2,515.8L971,543h-4.9c-19,0-29.4,9.9-29.4,32v26.7h-27.2v-85.4h27.2v16.3c6.1-10.2,15.5-17.5,29.4-17.5
					C968.5,515.1,970.2,515.3,972.2,515.8z"/>
			</g>
		</g>
	</g>
	<g class="st2">
		<g class="st3">
			<text transform="matrix(1 0 0 1 1233.3906 359.5156)" class="st4 st5">W</text>
			<text transform="matrix(1 0 0 1 1250.3906 459.5156)" class="st4 st5">V</text>
			<text transform="matrix(1 0 0 1 1251.3906 559.5156)" class="st4 st5">H</text>
			<rect x="1211.5" y="255.5" class="st6" width="148.5" height="346"/>
		</g>
		<g class="st3">
			<text transform="matrix(1 0 0 1 1022.3906 364.5156)" class="st7 st4 st5">W</text>
			<text transform="matrix(1 0 0 1 1039.3906 464.5156)" class="st7 st4 st5">V</text>
			<text transform="matrix(1 0 0 1 1040.3906 564.5156)" class="st7 st4 st5">H</text>
			<rect x="1000.5" y="260.5" class="st8" width="148.5" height="346"/>
		</g>
	</g>
	<g class="st2">
		<path class="st9" d="M514.6,286.9l-44.8-77.5c-5.9-10.1-2.4-23.1,7.8-29l0,0c10.1-5.9,23.1-2.4,29,7.8l44.8,77.5
			c5.9,10.1,2.4,23.1-7.8,29h0C533.4,300.5,520.5,297.1,514.6,286.9z"/>
		<path class="st10" d="M611.5,286.9l44.8-77.5c5.9-10.1,2.4-23.1-7.8-29l0,0c-10.1-5.9-23.1-2.4-29,7.8l-44.8,77.5
			c-5.9,10.1-2.4,23.1,7.8,29l0,0C592.7,300.5,605.6,297.1,611.5,286.9z"/>
		<path class="st9" d="M574.2,286.9l-44.8-77.5c-5.9-10.1-2.4-23.1,7.8-29l0,0c10.1-5.9,23.1-2.4,29,7.8l44.8,77.5
			c5.9,10.1,2.4,23.1-7.8,29l0,0C593,300.5,580.1,297.1,574.2,286.9z"/>
		<path class="st11" d="M702.1,286.9l44.8-77.5c5.9-10.1,2.4-23.1-7.8-29l0,0c-10.1-5.9-23.1-2.4-29,7.8l-44.8,77.5
			c-5.9,10.1-2.4,23.1,7.8,29l0,0C683.3,300.5,696.2,297.1,702.1,286.9z"/>
		<path class="st10" d="M840.5,223.2v28.5c-3.7,4.3-9.2,7-15.3,7h-80.9c-11.2,0-20.4-9.1-20.4-20.4v-1.7c0-11.2,9.1-20.4,20.4-20.4
			h80.9C831.3,216.2,836.8,218.9,840.5,223.2z"/>
		<path class="st9" d="M766.6,277.9V197c0-11.2-9.1-20.4-20.4-20.4h-1.7c-11.2,0-20.4,9.1-20.4,20.4v80.9c0,11.2,9.1,20.4,20.4,20.4
			h1.7C757.5,298.2,766.6,289.1,766.6,277.9z"/>
		<path class="st9" d="M840.5,197v80.9c0,11.2-9.1,20.4-20.4,20.4h-1.7c-11.2,0-20.4-9.1-20.4-20.4V197c0-11.2,9.1-20.4,20.4-20.4
			h1.7C831.4,176.6,840.5,185.7,840.5,197z"/>
		<path class="st9" d="M664.8,286.9l-44.8-77.5c-5.9-10.1-2.4-23.1,7.8-29l0,0c10.1-5.9,23.1-2.4,29,7.8l44.8,77.5
			c5.9,10.1,2.4,23.1-7.8,29l0,0C683.6,300.5,670.7,297.1,664.8,286.9z"/>
		<text transform="matrix(1 0 0 1 891.0132 406.7129)" class="st9 st12 st13">Walter</text>
		<text transform="matrix(1 0 0 1 894.0132 477.7129)" class="st9 st12 st13">Van Hooser</text>
		<text transform="matrix(1 0 0 1 872.0737 231.999)" class="st9 st14 st15">Walter</text>
		<text transform="matrix(1 0 0 1 874.8374 297.3867)" class="st9 st14 st15">Van Hooser</text>
		<g class="st3">
			<text transform="matrix(1 0 0 1 540.9486 455.1561)" class="st7 st4 st5">W</text>
			<text transform="matrix(1 0 0 1 657.9706 455.1782)" class="st7 st4 st5">V</text>
			<text transform="matrix(1 0 0 1 743.9233 454.1309)" class="st7 st4 st5">H</text>
			
				<rect x="608.5" y="247.5" transform="matrix(6.123234e-17 -1 1 6.123234e-17 262.25 1103.25)" class="st8" width="148.5" height="346"/>
		</g>
	</g>
</g>
<g id="Layer_2">
	<g class="st2">
		<rect x="1563.5" y="398.5" class="st16" width="45" height="45"/>
		<rect x="1518.5" y="443.5" class="st11" width="45" height="45"/>
		<rect x="1563.5" y="443.5" class="st9" width="45" height="90"/>
		<g class="st3">
			<rect x="1475" y="489" class="st17" width="45" height="45"/>
			<rect x="1475" y="399" class="st7" width="45" height="90"/>
		</g>
	</g>
	<text transform="matrix(1 0 0 1 1151.9771 193.7588)" class="st18 st19 st20 st21">WVH</text>
	<g class="st2">
		<text transform="matrix(1 0 0 1 139.9771 863.7588)" class="st22 st4 st20">WVH</text>
		<text transform="matrix(1 0 0 1 69.9771 933.7588)" class="st22 st4 st20">WVH</text>
		<line class="st22" x1="73.5" y1="762.5" x2="143.5" y2="692.5"/>
		<line class="st22" x1="130.5" y1="935.5" x2="200.5" y2="865.5"/>
		<line class="st22" x1="242.5" y1="865.5" x2="172.5" y2="935.5"/>
		<line class="st22" x1="242.5" y1="935.5" x2="312.5" y2="865.5"/>
		<line class="st22" x1="284.5" y1="935.5" x2="354.5" y2="865.5"/>
		<line class="st22" x1="185.5" y1="762.5" x2="255.5" y2="692.5"/>
		<line class="st22" x1="290.5" y1="762.5" x2="360.5" y2="692.5"/>
		<line class="st22" x1="414.5" y1="935.5" x2="484.5" y2="865.5"/>
		<line class="st22" x1="474.5" y1="761.5" x2="544.5" y2="691.5"/>
		<line class="st22" x1="343.5" y1="761.5" x2="413.5" y2="691.5"/>
		<line class="st22" x1="396.5" y1="761.5" x2="466.5" y2="691.5"/>
		<line class="st22" x1="525.5" y1="762.5" x2="595.5" y2="692.5"/>
		<line class="st22" x1="457.5" y1="935.5" x2="527.5" y2="865.5"/>
		<line class="st22" x1="542.5" y1="934.5" x2="612.5" y2="864.5"/>
		<line class="st22" x1="590.5" y1="934.5" x2="660.5" y2="864.5"/>
		<line class="st22" x1="542.5" y1="762.5" x2="612.5" y2="692.5"/>
		<line class="st22" x1="590.5" y1="762.5" x2="660.5" y2="692.5"/>
		<line class="st22" x1="651.5" y1="762.5" x2="721.5" y2="692.5"/>
		<line class="st22" x1="699.5" y1="762.5" x2="769.5" y2="692.5"/>
		<line class="st22" x1="652.5" y1="934.5" x2="722.5" y2="864.5"/>
		<line class="st22" x1="700.5" y1="934.5" x2="770.5" y2="864.5"/>
	</g>
	<g class="st2">
		<polygon class="st11" points="1353.5,759 1418,689 1465,688 1401.5,759 		"/>
		<g class="st3">
			<text transform="matrix(1 0 0 1 1126.9771 930.2588)" class="st23 st4 st20">WVH</text>
			<polygon class="st23" points="1599.5,759 1669.5,689 1717.5,689 1647.5,759 			"/>
			<polygon class="st23" points="1708.5,759 1778.5,689 1826.5,689 1756.5,759 			"/>
			<polygon class="st23" points="1529.5,759 1599.5,689 1647.5,689 1577.5,759 			"/>
			<polygon class="st23" points="1403.5,759 1473.5,689 1521.5,689 1451.5,759 			"/>
			<polygon class="st23" points="1243.5,759 1314.5,688 1355,688 1291.5,759 			"/>
			<path class="st23" d="M1404.5,688"/>
			<path class="st23" d="M1333.5,759"/>
			<polygon class="st23" points="1129.5,759 1199.5,689 1247.5,689 1177.5,759 			"/>
			<text transform="matrix(1 0 0 1 1196.9771 860.2588)" class="st7 st4 st20">WVH</text>
			<polygon class="st7" points="1187.5,932 1257.5,862 1299.5,862 1229.5,932 			"/>
			<polygon class="st7" points="1299.5,932 1369.5,862 1408.5,862 1338.5,932 			"/>
			<path class="st24" d="M1417.5,689"/>
			<path class="st24" d="M1347.5,759"/>
			<polygon class="st7" points="1471.5,932 1541.5,862 1584.5,862 1514.5,932 			"/>
			<line class="st24" x1="1582.5" y1="759" x2="1652.5" y2="689"/>
			<polygon class="st7" points="1599.5,931 1669.5,861 1717.5,861 1647.5,931 			"/>
			<polygon class="st7" points="1709.5,931 1779.5,861 1827.5,861 1757.5,931 			"/>
		</g>
	</g>
</g>
</svg>
