<?xml version="1.0" encoding="utf-8"?>
<!-- Generator: Adobe Illustrator 23.0.1, SVG Export Plug-In . SVG Version: 6.00 Build 0)  -->
<svg version="1.1" xmlns="http://www.w3.org/2000/svg" xmlns:xlink="http://www.w3.org/1999/xlink" x="0px" y="0px"
	 viewBox="0 0 1920 1080" style="enable-background:new 0 0 1920 1080;" xml:space="preserve">
<style type="text/css">
	.st0{display:none;fill:#E1C283;}
	.st1{fill:#CCCCCC;}
	.st2{display:none;}
	.st3{display:inline;}
	.st4{font-family:'Gotham-Black';}
	.st5{font-size:95.362px;}
	.st6{fill:none;stroke:#000000;stroke-width:30.9189;stroke-miterlimit:10;}
	.st7{fill:#FFFFFF;}
	.st8{fill:none;stroke:#FFFFFF;stroke-width:30.9189;stroke-miterlimit:10;}
	.st9{display:inline;fill:#FFFFFF;}
	.st10{display:inline;fill:#F7E18E;}
	.st11{display:inline;fill:#DBDBDB;}
	.st12{font-family:'Roboto-Light';}
	.st13{font-size:79.5634px;}
	.st14{font-family:'GalanoGrotesqueAltDEMO-Bold';}
	.st15{font-size:73.2751px;}
	.st16{display:inline;fill:#FFD81A;}
	.st17{fill:#FFD81A;}
	.st18{display:none;fill:#FFFFFF;}
	.st19{font-family:'Baskerville-SemiBold';}
	.st20{font-size:245.1879px;}
	.st21{letter-spacing:-44;}
	.st22{display:inline;fill:none;stroke:#FFFFFF;stroke-miterlimit:10;}
	.st23{fill:#DBDBDB;}
	.st24{fill:none;stroke:#FFFFFF;stroke-miterlimit:10;}
</style>
<g id="Layer_1">
	<rect x="-1" y="-3" class="st0" width="1925" height="1081"/>
	<g>
		<path d="M589.5,577.4L485.7,397.5c-13.6-23.5-5.5-53.6,18-67.2l0,0c23.5-13.6,53.6-5.5,67.2,18l103.8,179.9
			c13.6,23.5,5.5,53.6-18,67.2h0C633.2,609,603.1,600.9,589.5,577.4z"/>
		<path class="st1" d="M808.3,577.4l103.8-179.9c13.6-23.5,5.5-53.6-18-67.2l0,0c-23.5-13.6-53.6-5.5-67.2,18L723.1,528.2
			c-13.6,23.5-5.5,53.6,18,67.2h0C764.6,609,794.7,600.9,808.3,577.4z"/>
		<path d="M727.9,577.4L624,397.5c-13.6-23.5-5.5-53.6,18-67.2l0,0c23.5-13.6,53.6-5.5,67.2,18l103.8,179.9
			c13.6,23.5,5.5,53.6-18,67.2h0C771.5,609,741.4,600.9,727.9,577.4z"/>
		<path class="st1" d="M1018.5,577.4l103.8-179.9c13.6-23.5,5.5-53.6-18-67.2v0c-23.5-13.6-53.6-5.5-67.2,18L933.4,528.2
			c-13.6,23.5-5.5,53.6,18,67.2h0C974.9,609,1005,600.9,1018.5,577.4z"/>
		<path class="st1" d="M1339.8,429.4v66.1c-8.6,9.9-21.4,16.2-35.5,16.2h-187.7c-26.1,0-47.2-21.1-47.2-47.2v-3.9
			c0-26.1,21.1-47.2,47.2-47.2h187.7C1318.4,413.3,1331.1,419.5,1339.8,429.4z"/>
		<path d="M1174.3,556.3V368.6c0-26.1-21.1-47.2-47.2-47.2h-3.9c-26.1,0-47.2,21.1-47.2,47.2v187.7c0,26.1,21.1,47.2,47.2,47.2h3.9
			C1153.2,603.6,1174.3,582.4,1174.3,556.3z"/>
		<path d="M1345.8,368.6v187.7c0,26.1-21.1,47.2-47.2,47.2h-3.9c-26.1,0-47.2-21.1-47.2-47.2V368.6c0-26.1,21.1-47.2,47.2-47.2h3.9
			C1324.7,321.4,1345.8,342.5,1345.8,368.6z"/>
		<path d="M938.1,577.4L834.3,397.5c-13.6-23.5-5.5-53.6,18-67.2l0,0c23.5-13.6,53.6-5.5,67.2,18l103.8,179.9
			c13.6,23.5,5.5,53.6-18,67.2h0C981.8,609,951.7,600.9,938.1,577.4z"/>
	</g>
	<g class="st2">
		<g class="st3">
			<text transform="matrix(1 0 0 1 1233.3906 359.5156)" class="st4 st5">W</text>
			<text transform="matrix(1 0 0 1 1250.3906 459.5156)" class="st4 st5">V</text>
			<text transform="matrix(1 0 0 1 1251.3906 559.5156)" class="st4 st5">H</text>
			<rect x="1211.5" y="255.5" class="st6" width="148.5" height="346"/>
		</g>
		<g class="st3">
			<text transform="matrix(1 0 0 1 1022.3906 364.5156)" class="st7 st4 st5">W</text>
			<text transform="matrix(1 0 0 1 1039.3906 464.5156)" class="st7 st4 st5">V</text>
			<text transform="matrix(1 0 0 1 1040.3906 564.5156)" class="st7 st4 st5">H</text>
			<rect x="1000.5" y="260.5" class="st8" width="148.5" height="346"/>
		</g>
	</g>
	<g class="st2">
		<path class="st9" d="M514.6,286.9l-44.8-77.5c-5.9-10.1-2.4-23.1,7.8-29l0,0c10.1-5.9,23.1-2.4,29,7.8l44.8,77.5
			c5.9,10.1,2.4,23.1-7.8,29h0C533.4,300.5,520.5,297.1,514.6,286.9z"/>
		<path class="st10" d="M611.5,286.9l44.8-77.5c5.9-10.1,2.4-23.1-7.8-29l0,0c-10.1-5.9-23.1-2.4-29,7.8l-44.8,77.5
			c-5.9,10.1-2.4,23.1,7.8,29l0,0C592.7,300.5,605.6,297.1,611.5,286.9z"/>
		<path class="st9" d="M574.2,286.9l-44.8-77.5c-5.9-10.1-2.4-23.1,7.8-29l0,0c10.1-5.9,23.1-2.4,29,7.8l44.8,77.5
			c5.9,10.1,2.4,23.1-7.8,29l0,0C593,300.5,580.1,297.1,574.2,286.9z"/>
		<path class="st11" d="M702.1,286.9l44.8-77.5c5.9-10.1,2.4-23.1-7.8-29l0,0c-10.1-5.9-23.1-2.4-29,7.8l-44.8,77.5
			c-5.9,10.1-2.4,23.1,7.8,29l0,0C683.3,300.5,696.2,297.1,702.1,286.9z"/>
		<path class="st10" d="M840.5,223.2v28.5c-3.7,4.3-9.2,7-15.3,7h-80.9c-11.2,0-20.4-9.1-20.4-20.4v-1.7c0-11.2,9.1-20.4,20.4-20.4
			h80.9C831.3,216.2,836.8,218.9,840.5,223.2z"/>
		<path class="st9" d="M766.6,277.9V197c0-11.2-9.1-20.4-20.4-20.4h-1.7c-11.2,0-20.4,9.1-20.4,20.4v80.9c0,11.2,9.1,20.4,20.4,20.4
			h1.7C757.5,298.2,766.6,289.1,766.6,277.9z"/>
		<path class="st9" d="M840.5,197v80.9c0,11.2-9.1,20.4-20.4,20.4h-1.7c-11.2,0-20.4-9.1-20.4-20.4V197c0-11.2,9.1-20.4,20.4-20.4
			h1.7C831.4,176.6,840.5,185.7,840.5,197z"/>
		<path class="st9" d="M664.8,286.9l-44.8-77.5c-5.9-10.1-2.4-23.1,7.8-29l0,0c10.1-5.9,23.1-2.4,29,7.8l44.8,77.5
			c5.9,10.1,2.4,23.1-7.8,29l0,0C683.6,300.5,670.7,297.1,664.8,286.9z"/>
		<text transform="matrix(1 0 0 1 891.0132 406.7129)" class="st9 st12 st13">Walter</text>
		<text transform="matrix(1 0 0 1 894.0132 477.7129)" class="st9 st12 st13">Van Hooser</text>
		<text transform="matrix(1 0 0 1 872.0737 231.999)" class="st9 st14 st15">Walter</text>
		<text transform="matrix(1 0 0 1 874.8374 297.3867)" class="st9 st14 st15">Van Hooser</text>
		<g class="st3">
			<text transform="matrix(1 0 0 1 540.9486 455.1561)" class="st7 st4 st5">W</text>
			<text transform="matrix(1 0 0 1 657.9706 455.1782)" class="st7 st4 st5">V</text>
			<text transform="matrix(1 0 0 1 743.9233 454.1309)" class="st7 st4 st5">H</text>
			
				<rect x="608.5" y="247.5" transform="matrix(6.123234e-17 -1 1 6.123234e-17 262.25 1103.25)" class="st8" width="148.5" height="346"/>
		</g>
	</g>
</g>
<g id="Layer_2">
	<g class="st2">
		<rect x="1563.5" y="398.5" class="st16" width="45" height="45"/>
		<rect x="1518.5" y="443.5" class="st11" width="45" height="45"/>
		<rect x="1563.5" y="443.5" class="st9" width="45" height="90"/>
		<g class="st3">
			<rect x="1475" y="489" class="st17" width="45" height="45"/>
			<rect x="1475" y="399" class="st7" width="45" height="90"/>
		</g>
	</g>
	<text transform="matrix(1 0 0 1 1151.9771 193.7588)" class="st18 st19 st20 st21">WVH</text>
	<g class="st2">
		<text transform="matrix(1 0 0 1 139.9771 863.7588)" class="st22 st4 st20">WVH</text>
		<text transform="matrix(1 0 0 1 69.9771 933.7588)" class="st22 st4 st20">WVH</text>
		<line class="st22" x1="73.5" y1="762.5" x2="143.5" y2="692.5"/>
		<line class="st22" x1="130.5" y1="935.5" x2="200.5" y2="865.5"/>
		<line class="st22" x1="242.5" y1="865.5" x2="172.5" y2="935.5"/>
		<line class="st22" x1="242.5" y1="935.5" x2="312.5" y2="865.5"/>
		<line class="st22" x1="284.5" y1="935.5" x2="354.5" y2="865.5"/>
		<line class="st22" x1="185.5" y1="762.5" x2="255.5" y2="692.5"/>
		<line class="st22" x1="290.5" y1="762.5" x2="360.5" y2="692.5"/>
		<line class="st22" x1="414.5" y1="935.5" x2="484.5" y2="865.5"/>
		<line class="st22" x1="474.5" y1="761.5" x2="544.5" y2="691.5"/>
		<line class="st22" x1="343.5" y1="761.5" x2="413.5" y2="691.5"/>
		<line class="st22" x1="396.5" y1="761.5" x2="466.5" y2="691.5"/>
		<line class="st22" x1="525.5" y1="762.5" x2="595.5" y2="692.5"/>
		<line class="st22" x1="457.5" y1="935.5" x2="527.5" y2="865.5"/>
		<line class="st22" x1="542.5" y1="934.5" x2="612.5" y2="864.5"/>
		<line class="st22" x1="590.5" y1="934.5" x2="660.5" y2="864.5"/>
		<line class="st22" x1="542.5" y1="762.5" x2="612.5" y2="692.5"/>
		<line class="st22" x1="590.5" y1="762.5" x2="660.5" y2="692.5"/>
		<line class="st22" x1="651.5" y1="762.5" x2="721.5" y2="692.5"/>
		<line class="st22" x1="699.5" y1="762.5" x2="769.5" y2="692.5"/>
		<line class="st22" x1="652.5" y1="934.5" x2="722.5" y2="864.5"/>
		<line class="st22" x1="700.5" y1="934.5" x2="770.5" y2="864.5"/>
	</g>
	<g class="st2">
		<polygon class="st11" points="1353.5,759 1418,689 1465,688 1401.5,759 		"/>
		<g class="st3">
			<text transform="matrix(1 0 0 1 1126.9771 930.2588)" class="st23 st4 st20">WVH</text>
			<polygon class="st23" points="1599.5,759 1669.5,689 1717.5,689 1647.5,759 			"/>
			<polygon class="st23" points="1708.5,759 1778.5,689 1826.5,689 1756.5,759 			"/>
			<polygon class="st23" points="1529.5,759 1599.5,689 1647.5,689 1577.5,759 			"/>
			<polygon class="st23" points="1403.5,759 1473.5,689 1521.5,689 1451.5,759 			"/>
			<polygon class="st23" points="1243.5,759 1314.5,688 1355,688 1291.5,759 			"/>
			<path class="st23" d="M1404.5,688"/>
			<path class="st23" d="M1333.5,759"/>
			<polygon class="st23" points="1129.5,759 1199.5,689 1247.5,689 1177.5,759 			"/>
			<text transform="matrix(1 0 0 1 1196.9771 860.2588)" class="st7 st4 st20">WVH</text>
			<polygon class="st7" points="1187.5,932 1257.5,862 1299.5,862 1229.5,932 			"/>
			<polygon class="st7" points="1299.5,932 1369.5,862 1408.5,862 1338.5,932 			"/>
			<path class="st24" d="M1417.5,689"/>
			<path class="st24" d="M1347.5,759"/>
			<polygon class="st7" points="1471.5,932 1541.5,862 1584.5,862 1514.5,932 			"/>
			<line class="st24" x1="1582.5" y1="759" x2="1652.5" y2="689"/>
			<polygon class="st7" points="1599.5,931 1669.5,861 1717.5,861 1647.5,931 			"/>
			<polygon class="st7" points="1709.5,931 1779.5,861 1827.5,861 1757.5,931 			"/>
		</g>
	</g>
</g>
</svg>
